HIERARCHY
ROOT hip
{
  OFFSET 0 0 0
  CHANNELS 6 Xposition Yposition Zposition Zrotation Yrotation Xrotation
  JOINT abdomen
  {
    OFFSET 0 20.6881 -0.73152
    CHANNELS 3 Zrotation Xrotation Yrotation
    JOINT chest
    {
      OFFSET 0 11.7043 -0.48768
      CHANNELS 3 Zrotation Xrotation Yrotation
      JOINT neck
      {
        OFFSET 0 22.1894 -2.19456
        CHANNELS 3 Zrotation Xrotation Yrotation
        JOINT head
        {
          OFFSET -0.24384 7.07133 1.2192
          CHANNELS 3 Zrotation Xrotation Yrotation
          JOINT leftEye
          {
            OFFSET 4.14528 8.04674 8.04672
            CHANNELS 3 Zrotation Xrotation Yrotation
            End Site
            {
              OFFSET 1 0 0
            }
          }
          JOINT rightEye
          {
            OFFSET -3.6576 8.04674 8.04672
            CHANNELS 3 Zrotation Xrotation Yrotation
            End Site
            {
              OFFSET 1 0 0
            }
          }
        }
      }
      JOINT rCollar
      {
        OFFSET -2.68224 19.2634 -4.8768
        CHANNELS 3 Zrotation Xrotation Yrotation
        JOINT rShldr
        {
          OFFSET -8.77824 -1.95073 1.46304
          CHANNELS 3 Zrotation Xrotation Yrotation
          JOINT rForeArm
          {
            OFFSET -28.1742 -1.7115 0.48768
            CHANNELS 3 Zrotation Xrotation Yrotation
            JOINT rHand
            {
              OFFSET -22.5879 0.773209 7.07136
              CHANNELS 3 Zrotation Xrotation Yrotation
              JOINT rThumb1
              {
                OFFSET -1.2192 -0.487915 3.41376
                CHANNELS 3 Zrotation Xrotation Yrotation
                JOINT rThumb2
                {
                  OFFSET -3.37035 -0.52449 3.41376
                  CHANNELS 3 Zrotation Xrotation Yrotation
                  End Site
                  {
                    OFFSET -1.78271 -1.18214 1.43049
                  }
                }
              }
              JOINT rIndex1
              {
                OFFSET -7.75947 0.938293 5.60832
                CHANNELS 3 Zrotation Xrotation Yrotation
                JOINT rIndex2
                {
                  OFFSET -2.54057 -0.884171 1.56538
                  CHANNELS 3 Zrotation Xrotation Yrotation
                  End Site
                  {
                    OFFSET -1.62519 -0.234802 1.16502
                  }
                }
              }
              JOINT rMid1
              {
                OFFSET -8.24714 1.18213 3.41376
                CHANNELS 3 Zrotation Xrotation Yrotation
                JOINT rMid2
                {
                  OFFSET -3.10165 -0.590103 1.0647
                  CHANNELS 3 Zrotation Xrotation Yrotation
                  End Site
                  {
                    OFFSET -2.48547 -0.328903 0.83742
                  }
                }
              }
              JOINT rRing1
              {
                OFFSET -8.82822 0.546677 1.51678
                CHANNELS 3 Zrotation Xrotation Yrotation
                JOINT rRing2
                {
                  OFFSET -2.60934 -0.819778 -0.0198488
                  CHANNELS 3 Zrotation Xrotation Yrotation
                  End Site
                  {
                    OFFSET -2.33842 -0.294052 0.168128
                  }
                }
              }
              JOINT rPinky1
              {
                OFFSET -8.27202 -0.0477905 -0.4584
                CHANNELS 3 Zrotation Xrotation Yrotation
                JOINT rPinky2
                {
                  OFFSET -1.82734 -0.647385 -0.700984
                  CHANNELS 3 Zrotation Xrotation Yrotation
                  End Site
                  {
                    OFFSET -1.69225 -0.51767 -0.607171
                  }
                }
              }
            }
          }
        }
      }
      JOINT lCollar
      {
        OFFSET 2.68224 19.2634 -4.8768
        CHANNELS 3 Zrotation Xrotation Yrotation
        JOINT lShldr
        {
          OFFSET 8.77824 -1.95073 1.46304
          CHANNELS 3 Zrotation Xrotation Yrotation
          JOINT lForeArm
          {
            OFFSET 28.1742 -1.7115 0.48768
            CHANNELS 3 Zrotation Xrotation Yrotation
            JOINT lHand
            {
              OFFSET 22.5879 0.773209 7.07136
              CHANNELS 3 Zrotation Xrotation Yrotation
              JOINT lThumb1
              {
                OFFSET 1.2192 -0.487915 3.41376
                CHANNELS 3 Zrotation Xrotation Yrotation
                JOINT lThumb2
                {
                  OFFSET 3.37035 -0.52449 3.41376
                  CHANNELS 3 Zrotation Xrotation Yrotation
                  End Site
                  {
                    OFFSET 1.78271 -1.18214 1.43049
                  }
                }
              }
              JOINT lIndex1
              {
                OFFSET 7.75947 0.938293 5.60832
                CHANNELS 3 Zrotation Xrotation Yrotation
                JOINT lIndex2
                {
                  OFFSET 2.54057 -0.884171 1.56538
                  CHANNELS 3 Zrotation Xrotation Yrotation
                  End Site
                  {
                    OFFSET 1.62519 -0.234802 1.16502
                  }
                }
              }
              JOINT lMid1
              {
                OFFSET 8.24714 1.18213 3.41376
                CHANNELS 3 Zrotation Xrotation Yrotation
                JOINT lMid2
                {
                  OFFSET 3.10165 -0.590103 1.0647
                  CHANNELS 3 Zrotation Xrotation Yrotation
                  End Site
                  {
                    OFFSET 2.48547 -0.328903 0.83742
                  }
                }
              }
              JOINT lRing1
              {
                OFFSET 8.82822 0.546677 1.51678
                CHANNELS 3 Zrotation Xrotation Yrotation
                JOINT lRing2
                {
                  OFFSET 2.60934 -0.819778 -0.0198488
                  CHANNELS 3 Zrotation Xrotation Yrotation
                  End Site
                  {
                    OFFSET 2.33842 -0.294052 0.168128
                  }
                }
              }
              JOINT lPinky1
              {
                OFFSET 8.27202 -0.0477905 -0.4584
                CHANNELS 3 Zrotation Xrotation Yrotation
                JOINT lPinky2
                {
                  OFFSET 1.82734 -0.647385 -0.700984
                  CHANNELS 3 Zrotation Xrotation Yrotation
                  End Site
                  {
                    OFFSET 1.69225 -0.51767 -0.607171
                  }
                }
              }
            }
          }
        }
      }
    }
  }
  JOINT rButtock
  {
    OFFSET -8.77824 4.35084 1.2192
    CHANNELS 3 Zrotation Xrotation Yrotation
    JOINT rThigh
    {
      OFFSET 0 -1.70687 -2.19456
      CHANNELS 3 Zrotation Xrotation Yrotation
      JOINT rShin
      {
        OFFSET 0 -36.8199 0.73152
        CHANNELS 3 Zrotation Xrotation Yrotation
        JOINT rFoot
        {
          OFFSET 0.73152 -45.1104 -5.12064
          CHANNELS 3 Zrotation Xrotation Yrotation
          End Site
          {
            OFFSET -1.1221 -3.69964 12.103
          }
        }
      }
    }
  }
  JOINT lButtock
  {
    OFFSET 8.77824 4.35084 1.2192
    CHANNELS 3 Zrotation Xrotation Yrotation
    JOINT lThigh
    {
      OFFSET 0 -1.70687 -2.19456
      CHANNELS 3 Zrotation Xrotation Yrotation
      JOINT lShin
      {
        OFFSET 0 -36.8199 0.73152
        CHANNELS 3 Zrotation Xrotation Yrotation
        JOINT lFoot
        {
          OFFSET -0.73152 -45.1104 -5.12064
          CHANNELS 3 Zrotation Xrotation Yrotation
          End Site
          {
            OFFSET 1.1221 -3.69964 12.103
          }
        }
      }
    }
  }
}
MOTION
Frames:	8
Frame Time:	0.00833333
25.3821 76.8735 104.249 -3.6074 38.8 -1.3516 0.913504 4.21769 -8.26528 2.1804 -1.74612 -2.27064 -4.05496 11.1593 -10.706 4.3417 -19.6353 -19.989 -0.0 0.0 0.0 -0.0 0.0 0.0 -1.07028e-14 -2.0736e-14 7.25409e-13 97.3611 38.7042 -22.8074 -28.4245 -36.451 77.7553 0.0102329 1.53253 0.214982 -1.67749e-09 1.85352e-09 -1.05756e-09 -2.89681e-09 3.21748e-09 -1.83268e-09 -1.67749e-09 1.85353e-09 -1.05757e-09 7.73091 5.47488 0.417314 -1.67749e-09 1.85354e-09 -1.05756e-09 2.90554 0.965183 0.102902 -1.67749e-09 1.85353e-09 -1.05756e-09 10.2786 0.731801 0.0259123 -1.6775e-09 1.85353e-09 -1.05755e-09 2.22167 -0.733487 -0.20892 -1.06549e-14 -2.07349e-14 7.25269e-13 -96.4223 66.0911 18.1784 25.3292 -21.8212 -54.139 0.320399 -15.9346 2.29923 7.82388e-10 1.96268e-09 -2.79145e-09 1.39297e-09 3.49935e-09 -4.82092e-09 7.82384e-10 1.96268e-09 -2.79143e-09 -7.73091 5.47488 -0.417314 7.82389e-10 1.96268e-09 -2.79145e-09 -2.90554 0.965183 -0.102902 7.82386e-10 1.96268e-09 -2.79145e-09 -10.2786 0.731801 -0.0259123 7.82391e-10 1.96268e-09 -2.79146e-09 -2.22167 -0.733487 0.20892 -2.03217e-16 0.0 -3.88251e-19 -27.5212 -26.9499 -0.542481 -0.307802 40.6499 0.842004 3.4758 13.089 -19.8852 2.03217e-16 0.0 3.88251e-19 31.3598 -30.4952 32.3139 0.865434 58.3493 -1.7957 0.910778 -14.9716 4.28614
24.92 76.4721 104.647 -3.513 38.865 -0.7689 0.970341 3.58962 -8.12924 1.89981 -1.65342 -2.24002 -4.04359 11.2902 -10.8205 4.56776 -19.8077 -20.1807 -0.0 0.0 0.0 -0.0 0.0 0.0 5.85563e-14 -8.33964e-14 -2.53033e-13 97.8321 39.8092 -23.2718 -28.4156 -36.7022 78.1822 -0.00751366 3.66812 0.515845 2.687e-10 2.78297e-10 5.74535e-10 4.72764e-10 5.12471e-10 9.83654e-10 2.68701e-10 2.78299e-10 5.74526e-10 7.73091 5.47488 0.417314 2.687e-10 2.78321e-10 5.74535e-10 2.90554 0.965183 0.102902 2.68709e-10 2.78296e-10 5.74535e-10 10.2786 0.731801 0.0259123 2.68695e-10 2.78297e-10 5.74542e-10 2.22167 -0.733487 -0.20892 5.85915e-14 -8.33991e-14 -2.53174e-13 -96.4691 65.8871 18.4326 25.3776 -21.9312 -54.32 0.29475 -15.2912 2.20185 -9.31154e-10 -2.00711e-09 1.93105e-09 -1.62822e-09 -3.52217e-09 3.33294e-09 -9.31158e-10 -2.0071e-09 1.93106e-09 -7.73091 5.47488 -0.417314 -9.31153e-10 -2.00711e-09 1.93105e-09 -2.90554 0.965183 -0.102902 -9.31153e-10 -2.00711e-09 1.93105e-09 -10.2786 0.731801 -0.0259123 -9.3115e-10 -2.0071e-09 1.93104e-09 -2.22167 -0.733487 0.20892 -2.03217e-16 0.0 -3.88251e-19 -28.3008 -27.5575 -2.29347 -0.337086 42.003 0.886037 3.93248 14.1798 -20.3345 2.03217e-16 0.0 3.88251e-19 31.6792 -31.2449 31.0987 0.879848 58.6008 -1.80671 0.537416 -15.2977 3.34413
24.4392 76.0452 105.01 -3.208 39.0262 0.0649 0.816444 2.90717 -8.06618 1.66097 -1.50533 -2.22958 -4.02356 11.4208 -10.9304 4.85066 -19.9875 -20.3528 -0.0 0.0 0.0 -0.0 0.0 0.0 1.05526e-13 -1.18076e-13 -9.54117e-13 98.4445 40.848 -23.8151 -28.4055 -36.9019 78.5291 -0.0348663 5.32214 0.750159 1.4999e-09 -1.12749e-09 1.84314e-09 2.60614e-09 -1.90534e-09 3.17345e-09 1.4999e-09 -1.12749e-09 1.84313e-09 7.73091 5.47488 0.417314 1.4999e-09 -1.12747e-09 1.84314e-09 2.90554 0.965183 0.102902 1.49991e-09 -1.12749e-09 1.84314e-09 10.2786 0.731801 0.0259123 1.49989e-09 -1.12749e-09 1.84314e-09 2.22167 -0.733487 -0.20892 1.05541e-13 -1.1808e-13 -9.54266e-13 -96.4243 65.682 18.6521 25.418 -22.0236 -54.4727 0.281599 -14.9343 2.14824 -2.13871e-09 -4.88328e-09 5.17355e-09 -3.75612e-09 -8.60344e-09 8.93083e-09 -2.13871e-09 -4.88328e-09 5.17356e-09 -7.73091 5.47488 -0.417314 -2.13871e-09 -4.88328e-09 5.17355e-09 -2.90554 0.965183 -0.102902 -2.13871e-09 -4.88328e-09 5.17355e-09 -10.2786 0.731801 -0.0259123 -2.13871e-09 -4.88328e-09 5.17353e-09 -2.22167 -0.733487 0.20892 -2.03217e-16 0.0 -3.88251e-19 -29.1441 -28.182 -3.9242 -0.367009 43.3521 0.933586 4.33446 15.0232 -20.8959 2.03217e-16 0.0 3.88251e-19 31.8752 -32.0357 29.7678 0.888479 58.7266 -1.80626 0.0960867 -15.5759 2.26361
23.9367 75.6143 105.362 -2.7494 39.274 1.0701 0.358014 2.10163 -8.11473 1.47627 -1.26317 -2.25084 -3.98295 11.5586 -11.0348 5.22057 -20.2165 -20.4979 -0.0 0.0 0.0 -0.0 0.0 0.0 1.2682e-13 -1.15792e-13 -1.32509e-12 99.2371 41.8199 -24.4319 -28.397 -37.0521 78.7898 -0.0560769 6.42509 0.907071 1.6996e-09 -2.54629e-09 2.76881e-09 2.9576e-09 -4.35247e-09 4.77269e-09 1.6996e-09 -2.54629e-09 2.7688e-09 7.73091 5.47488 0.417314 1.6996e-09 -2.54626e-09 2.76881e-09 2.90554 0.965183 0.102902 1.69961e-09 -2.54629e-09 2.76881e-09 10.2786 0.731801 0.0259123 1.6996e-09 -2.54629e-09 2.76882e-09 2.22167 -0.733487 -0.20892 1.268e-13 -1.15797e-13 -1.32526e-12 -96.2543 65.4638 18.8294 25.4495 -22.0961 -54.5918 0.282739 -14.9536 2.15127 -2.72862e-09 -6.49914e-09 6.53933e-09 -4.79255e-09 -1.14426e-08 1.1287e-08 -2.72863e-09 -6.49913e-09 6.53934e-09 -7.73091 5.47488 -0.417314 -2.72862e-09 -6.49914e-09 6.53933e-09 -2.90554 0.965183 -0.102902 -2.72862e-09 -6.49914e-09 6.53933e-09 -10.2786 0.731801 -0.0259123 -2.72862e-09 -6.49914e-09 6.53932e-09 -2.22167 -0.733487 0.20892 -2.03217e-16 0.0 -3.88251e-19 -30.1092 -28.8734 -5.43332 -0.399424 44.7362 0.984688 4.69129 15.5631 -21.7459 2.03217e-16 0.0 3.88251e-19 31.8746 -32.944 28.2963 0.892587 58.7402 -1.79683 -0.389702 -15.7718 1.10139
23.4185 75.1998 105.725 -2.1816 39.6002 2.1598 -0.352892 1.17694 -8.23921 1.32409 -0.948556 -2.29441 -3.92094 11.7001 -11.1337 5.66439 -20.4955 -20.6201 -0.0 0.0 0.0 -0.0 0.0 0.0 1.34563e-13 -9.19187e-14 -1.5429e-12 100.203 42.7388 -25.1408 -28.3907 -37.1706 78.9913 -0.0689561 7.19193 1.01642 1.34272e-09 -4.09374e-09 3.57772e-09 2.34808e-09 -7.02585e-09 6.1714e-09 1.34272e-09 -4.09375e-09 3.57771e-09 7.73091 5.47488 0.417314 1.34272e-09 -4.09373e-09 3.57772e-09 2.90554 0.965183 0.102902 1.34273e-09 -4.09375e-09 3.57772e-09 10.2786 0.731801 0.0259123 1.34272e-09 -4.09375e-09 3.57772e-09 2.22167 -0.733487 -0.20892 1.34495e-13 -9.19206e-14 -1.54309e-12 -95.9649 65.2357 18.965 25.4778 -22.1617 -54.6985 0.292416 -15.1971 2.18803 -3.01738e-09 -7.53414e-09 6.97382e-09 -5.29664e-09 -1.32464e-08 1.20343e-08 -3.01738e-09 -7.53414e-09 6.97383e-09 -7.73091 5.47488 -0.417314 -3.01738e-09 -7.53414e-09 6.97382e-09 -2.90554 0.965183 -0.102902 -3.01738e-09 -7.53414e-09 6.97382e-09 -10.2786 0.731801 -0.0259123 -3.01738e-09 -7.53414e-09 6.97381e-09 -2.22167 -0.733487 0.20892 -2.03217e-16 0.0 -3.88251e-19 -31.2665 -29.731 -7.0727 -0.44105 46.3477 1.04688 5.03264 15.9201 -22.8282 2.03217e-16 0.0 3.88251e-19 31.6907 -33.9637 26.688 0.892614 58.6566 -1.77954 -0.921486 -15.9175 -0.152956
22.8888 74.8184 106.121 -1.5711 40.0027 3.2153 -1.15461 0.286249 -8.38027 1.19349 -0.632343 -2.34151 -3.86513 11.8308 -11.2293 6.12461 -20.7304 -20.733 -0.0 0.0 0.0 -0.0 0.0 0.0 1.27277e-13 -5.51332e-14 -1.59352e-12 101.272 43.5874 -25.9437 -28.3871 -37.2461 79.1169 -0.0739697 7.61824 1.07723 7.85186e-10 -5.27263e-09 4.05397e-09 1.38976e-09 -9.06565e-09 6.9961e-09 7.85188e-10 -5.27263e-09 4.05397e-09 7.73091 5.47488 0.417314 7.85186e-10 -5.27263e-09 4.05397e-09 2.90554 0.965183 0.102902 7.85193e-10 -5.27263e-09 4.05397e-09 10.2786 0.731801 0.0259123 7.85176e-10 -5.27263e-09 4.05398e-09 2.22167 -0.733487 -0.20892 1.27167e-13 -5.51329e-14 -1.59375e-12 -95.6303 65.0224 19.0785 25.5016 -22.2169 -54.7883 0.307556 -15.5767 2.24544 -3.01885e-09 -7.8538e-09 6.66057e-09 -5.29495e-09 -1.37889e-08 1.1491e-08 -3.01885e-09 -7.8538e-09 6.66059e-09 -7.73091 5.47488 -0.417314 -3.01885e-09 -7.8538e-09 6.66057e-09 -2.90554 0.965183 -0.102902 -3.01885e-09 -7.8538e-09 6.66057e-09 -10.2786 0.731801 -0.0259123 -3.01885e-09 -7.8538e-09 6.66056e-09 -2.22167 -0.733487 0.20892 -2.03217e-16 0.0 -3.88251e-19 -32.4413 -30.5738 -8.66348 -0.485479 47.9542 1.11696 5.3002 16.129 -23.7714 2.03217e-16 0.0 3.88251e-19 31.4435 -34.9162 24.9735 0.885503 58.4338 -1.74805 -1.54717 -16.0567 -1.61864
22.3437 74.4734 106.564 -0.9918 40.4163 4.1621 -1.88052 -0.418026 -8.47736 1.07301 -0.385353 -2.3733 -3.84321 11.9363 -11.3235 6.54427 -20.8269 -20.8498 -0.0 0.0 0.0 -0.0 0.0 0.0 1.03488e-13 -1.41147e-14 -1.46296e-12 102.373 44.3483 -26.8406 -28.3864 -37.2669 79.1497 -0.0732657 7.69957 1.08873 3.82923e-10 -5.5857e-09 3.98169e-09 6.94798e-10 -9.61202e-09 6.87328e-09 3.82925e-10 -5.5857e-09 3.98168e-09 7.73091 5.47488 0.417314 3.82922e-10 -5.5857e-09 3.98169e-09 2.90554 0.965183 0.102902 3.82929e-10 -5.5857e-09 3.98168e-09 10.2786 0.731801 0.0259123 3.82913e-10 -5.5857e-09 3.98169e-09 2.22167 -0.733487 -0.20892 1.03354e-13 -1.41141e-14 -1.4632e-12 -95.325 64.8489 19.189 25.5195 -22.2587 -54.8568 0.324832 -16.0046 2.31032 -2.74689e-09 -7.32361e-09 5.78315e-09 -4.81406e-09 -1.28442e-08 9.97552e-09 -2.74689e-09 -7.32361e-09 5.78317e-09 -7.73091 5.47488 -0.417314 -2.74689e-09 -7.32361e-09 5.78315e-09 -2.90554 0.965183 -0.102902 -2.74689e-09 -7.32361e-09 5.78315e-09 -10.2786 0.731801 -0.0259123 -2.74689e-09 -7.32361e-09 5.78314e-09 -2.22167 -0.733487 0.20892 -2.03217e-16 0.0 -3.88251e-19 -33.4238 -31.2326 -10.0085 -0.524103 49.3235 1.1897 5.43008 16.2339 -24.2046 2.03217e-16 0.0 3.88251e-19 31.2795 -35.6171 23.1944 0.868863 58.03 -1.69666 -2.3205 -16.2292 -3.41641
21.7852 74.1593 107.056 -0.5052 40.7556 4.9214 -2.51168 -0.887465 -8.53512 0.981576 -0.228543 -2.39001 -3.87261 12.0111 -11.4207 6.92825 -20.7385 -20.9773 -0.0 0.0 0.0 -0.0 0.0 0.0 4.54729e-14 4.36495e-14 -1.01251e-12 103.537 44.9679 -27.8482 -28.3893 -37.2171 79.0644 -0.0640686 7.27603 1.02801 1.88486e-10 -4.51506e-09 2.97885e-09 3.50711e-10 -7.77255e-09 5.14338e-09 1.88489e-10 -4.51506e-09 2.97884e-09 7.73091 5.47488 0.417314 1.88485e-10 -4.51507e-09 2.97885e-09 2.90554 0.965183 0.102902 1.88491e-10 -4.51507e-09 2.97884e-09 10.2786 0.731801 0.0259123 1.88476e-10 -4.51506e-09 2.97885e-09 2.22167 -0.733487 -0.20892 4.53483e-14 4.36469e-14 -1.01278e-12 -95.0407 64.7274 19.276 25.529 -22.2811 -54.8937 0.352298 -16.6608 2.41032 -1.9704e-09 -5.26998e-09 3.83576e-09 -3.4484e-09 -9.23128e-09 6.61591e-09 -1.9704e-09 -5.26998e-09 3.83579e-09 -7.73091 5.47488 -0.417314 -1.97039e-09 -5.26998e-09 3.83577e-09 -2.90554 0.965183 -0.102902 -1.9704e-09 -5.26998e-09 3.83576e-09 -10.2786 0.731801 -0.0259123 -1.97039e-09 -5.26998e-09 3.83575e-09 -2.22167 -0.733487 0.20892 -2.03217e-16 0.0 -3.88251e-19 -34.0987 -31.6755 -10.9784 -0.552126 50.3889 1.26483 5.41215 16.3259 -23.9168 2.03217e-16 0.0 3.88251e-19 31.3196 -36.0455 21.3968 0.848476 57.4647 -1.63117 -3.27039 -16.3927 -5.60022
